<svg id="Group_1301" data-name="Group 1301" xmlns="http://www.w3.org/2000/svg" xmlns:xlink="http://www.w3.org/1999/xlink" width="28.794" height="22.865" viewBox="0 0 28.794 22.865">
  <defs>
    <clipPath id="clip-path">
      <rect id="Rectangle_774" data-name="Rectangle 774" width="28.794" height="22.865" fill="#fff"/>
    </clipPath>
  </defs>
  <g id="Group_1300" data-name="Group 1300" transform="translate(0 0)" clip-path="url(#clip-path)">
    <path id="Path_878" data-name="Path 878" d="M24.181,0H4.613A4.618,4.618,0,0,0,0,4.612V16.047a6.826,6.826,0,0,0,6.818,6.818H21.976a6.827,6.827,0,0,0,6.818-6.818V4.612A4.619,4.619,0,0,0,24.181,0m-.767,3.053L15.9,11.666a1.992,1.992,0,0,1-3,0L5.379,3.053ZM21.976,19.811H6.818a3.768,3.768,0,0,1-3.765-3.764V5.029L10.6,13.674a5.045,5.045,0,0,0,7.6,0l7.544-8.645V16.047a3.769,3.769,0,0,1-3.765,3.764" transform="translate(0 0)" fill="#fff"/>
  </g>
</svg>
