<svg xmlns="http://www.w3.org/2000/svg" width="23.687" height="23.965" viewBox="0 0 23.687 23.965">
  <g id="Group_1299" data-name="Group 1299" transform="translate(-1358.615 -884.979)">
    <rect id="Rectangle_768" data-name="Rectangle 768" width="5.735" height="16.027" transform="translate(1358.615 892.916)" fill="#fff"/>
    <path id="Path_870" data-name="Path 870" d="M42.028,40.933h4.426v2.226s.681-2.246,4.773-2.246c3.378,0,5.794,1.316,5.794,4.93V56.96H52.294s.026-9.349.052-9.637a2.65,2.65,0,0,0-2.671-2.645,2.915,2.915,0,0,0-3.169,3.038V56.96H42.028Z" transform="translate(1325.282 851.983)" fill="#fff"/>
    <path id="Path_871" data-name="Path 871" d="M5.735,5.51A2.868,2.868,0,1,1,2.867,2.642,2.868,2.868,0,0,1,5.735,5.51" transform="translate(1358.615 882.337)" fill="#fff"/>
  </g>
</svg>
